{
	"asset":{
		"generator":"Khronos glTF Blender I/O v4.0.44",
		"version":"2.0"
	},
	"extensionsUsed":[
		"KHR_materials_emissive_strength"
	],
	"scene":0,
	"scenes":[
		{
			"name":"Scene",
			"nodes":[
				0,
				1,
				2,
				3,
				4,
				5
			]
		}
	],
	"nodes":[
		{
			"mesh":0,
			"name":"Cube.005",
			"scale":[
				1.289045810699463,
				0.2578091323375702,
				1.289045810699463
			],
			"translation":[
				0,
				0.2579820156097412,
				0
			]
		},
		{
			"mesh":1,
			"name":"Plane",
			"scale":[
				5.004845142364502,
				5.004845142364502,
				5.004845142364502
			],
			"translation":[
				0,
				0.39693015813827515,
				0
			]
		},
		{
			"mesh":2,
			"name":"Cube",
			"scale":[
				0.4908663034439087,
				0.4908663034439087,
				0.4908663034439087
			],
			"translation":[
				5.501831531524658,
				0.9802066087722778,
				0
			]
		},
		{
			"mesh":3,
			"name":"Text",
			"rotation":[
				0.5,
				0.4999999403953552,
				-0.4999999403953552,
				0.5000001192092896
			],
			"scale":[
				0.6642294526100159,
				0.6642294526100159,
				0.6642294526100159
			],
			"translation":[
				5.524267673492432,
				4.242856979370117,
				0.20862942934036255
			]
		},
		{
			"mesh":4,
			"name":"Cube.001",
			"scale":[
				0.026107357814908028,
				0.5889543890953064,
				0.026107357814908028
			],
			"translation":[
				5.068267345428467,
				2.1787452697753906,
				0.4336581826210022
			]
		},
		{
			"mesh":5,
			"name":"Cylinder",
			"rotation":[
				0.6532815098762512,
				-0.27059805393218994,
				0.27059805393218994,
				0.6532815098762512
			],
			"scale":[
				0.6394662857055664,
				0.12789325416088104,
				0.6394662857055664
			],
			"translation":[
				-5.294732093811035,
				1.315347671508789,
				5.258542060852051
			]
		}
	],
	"materials":[
		{
			"doubleSided":true,
			"name":"Material.004",
			"pbrMetallicRoughness":{
				"metallicFactor":0,
				"roughnessFactor":0.6810344457626343
			}
		},
		{
			"doubleSided":true,
			"name":"Material.001",
			"pbrMetallicRoughness":{
				"baseColorFactor":[
					0.005387336481362581,
					0.005387336481362581,
					0.005387336481362581,
					1
				],
				"metallicFactor":0,
				"roughnessFactor":0.7155172228813171
			}
		},
		{
			"doubleSided":true,
			"emissiveFactor":[
				1,
				0.03908930718898773,
				0.008475170470774174
			],
			"extensions":{
				"KHR_materials_emissive_strength":{
					"emissiveStrength":2.5999999046325684
				}
			},
			"name":"Material.002",
			"pbrMetallicRoughness":{
				"baseColorFactor":[
					0.8004324436187744,
					0.052136968821287155,
					0.03491171449422836,
					1
				],
				"metallicFactor":0,
				"roughnessFactor":0.5
			}
		},
		{
			"doubleSided":true,
			"emissiveFactor":[
				0.29999998211860657,
				0.2027055917557714,
				0.05659694930333181
			],
			"name":"Material.003",
			"pbrMetallicRoughness":{
				"baseColorFactor":[
					0.8004492521286011,
					0.5725087523460388,
					0.09019257873296738,
					1
				],
				"metallicFactor":0.6379310488700867,
				"roughnessFactor":0.33620691299438477
			}
		}
	],
	"meshes":[
		{
			"name":"Cube.005",
			"primitives":[
				{
					"attributes":{
						"POSITION":0,
						"NORMAL":1,
						"TEXCOORD_0":2
					},
					"indices":3,
					"material":0
				}
			]
		},
		{
			"name":"Plane",
			"primitives":[
				{
					"attributes":{
						"POSITION":4,
						"NORMAL":5,
						"TEXCOORD_0":6
					},
					"indices":7,
					"material":1
				}
			]
		},
		{
			"name":"Cube.014",
			"primitives":[
				{
					"attributes":{
						"POSITION":8,
						"NORMAL":9,
						"TEXCOORD_0":10
					},
					"indices":11
				}
			]
		},
		{
			"name":"Text",
			"primitives":[
				{
					"attributes":{
						"POSITION":12,
						"NORMAL":13,
						"TEXCOORD_0":14
					},
					"indices":15,
					"material":2
				}
			]
		},
		{
			"name":"Cube.015",
			"primitives":[
				{
					"attributes":{
						"POSITION":16,
						"NORMAL":17,
						"TEXCOORD_0":18
					},
					"indices":19
				}
			]
		},
		{
			"name":"Cylinder",
			"primitives":[
				{
					"attributes":{
						"POSITION":20,
						"NORMAL":21,
						"TEXCOORD_0":22
					},
					"indices":23,
					"material":3
				}
			]
		}
	],
	"accessors":[
		{
			"bufferView":0,
			"componentType":5126,
			"count":960,
			"max":[
				4.657714366912842,
				1.0000001192092896,
				4.663084983825684
			],
			"min":[
				-4.662675380706787,
				-1.0000001192092896,
				-4.657513618469238
			],
			"type":"VEC3"
		},
		{
			"bufferView":1,
			"componentType":5126,
			"count":960,
			"type":"VEC3"
		},
		{
			"bufferView":2,
			"componentType":5126,
			"count":960,
			"type":"VEC2"
		},
		{
			"bufferView":3,
			"componentType":5123,
			"count":1440,
			"type":"SCALAR"
		},
		{
			"bufferView":4,
			"componentType":5126,
			"count":224,
			"max":[
				1,
				0.03021302819252014,
				1
			],
			"min":[
				-1,
				0,
				-1
			],
			"type":"VEC3"
		},
		{
			"bufferView":5,
			"componentType":5126,
			"count":224,
			"type":"VEC3"
		},
		{
			"bufferView":6,
			"componentType":5126,
			"count":224,
			"type":"VEC2"
		},
		{
			"bufferView":7,
			"componentType":5123,
			"count":672,
			"type":"SCALAR"
		},
		{
			"bufferView":8,
			"componentType":5126,
			"count":328,
			"max":[
				1,
				6.8183465003967285,
				1
			],
			"min":[
				-1,
				-1,
				-1
			],
			"type":"VEC3"
		},
		{
			"bufferView":9,
			"componentType":5126,
			"count":328,
			"type":"VEC3"
		},
		{
			"bufferView":10,
			"componentType":5126,
			"count":328,
			"type":"VEC2"
		},
		{
			"bufferView":11,
			"componentType":5123,
			"count":540,
			"type":"SCALAR"
		},
		{
			"bufferView":12,
			"componentType":5126,
			"count":94,
			"max":[
				0.6040000319480896,
				0,
				0
			],
			"min":[
				0.07700000703334808,
				0,
				-0.6820000410079956
			],
			"type":"VEC3"
		},
		{
			"bufferView":13,
			"componentType":5126,
			"count":94,
			"type":"VEC3"
		},
		{
			"bufferView":14,
			"componentType":5126,
			"count":94,
			"type":"VEC2"
		},
		{
			"bufferView":15,
			"componentType":5123,
			"count":282,
			"type":"SCALAR"
		},
		{
			"bufferView":16,
			"componentType":5126,
			"count":24,
			"max":[
				1,
				1,
				1
			],
			"min":[
				-1,
				-1,
				-1
			],
			"type":"VEC3"
		},
		{
			"bufferView":17,
			"componentType":5126,
			"count":24,
			"type":"VEC3"
		},
		{
			"bufferView":18,
			"componentType":5126,
			"count":24,
			"type":"VEC2"
		},
		{
			"bufferView":19,
			"componentType":5123,
			"count":36,
			"type":"SCALAR"
		},
		{
			"bufferView":20,
			"componentType":5126,
			"count":2291,
			"max":[
				1,
				1,
				1
			],
			"min":[
				-1,
				-1,
				-1
			],
			"type":"VEC3"
		},
		{
			"bufferView":21,
			"componentType":5126,
			"count":2291,
			"type":"VEC3"
		},
		{
			"bufferView":22,
			"componentType":5126,
			"count":2291,
			"type":"VEC2"
		},
		{
			"bufferView":23,
			"componentType":5123,
			"count":5100,
			"type":"SCALAR"
		}
	],
	"bufferViews":[
		{
			"buffer":0,
			"byteLength":11520,
			"byteOffset":0,
			"target":34962
		},
		{
			"buffer":0,
			"byteLength":11520,
			"byteOffset":11520,
			"target":34962
		},
		{
			"buffer":0,
			"byteLength":7680,
			"byteOffset":23040,
			"target":34962
		},
		{
			"buffer":0,
			"byteLength":2880,
			"byteOffset":30720,
			"target":34963
		},
		{
			"buffer":0,
			"byteLength":2688,
			"byteOffset":33600,
			"target":34962
		},
		{
			"buffer":0,
			"byteLength":2688,
			"byteOffset":36288,
			"target":34962
		},
		{
			"buffer":0,
			"byteLength":1792,
			"byteOffset":38976,
			"target":34962
		},
		{
			"buffer":0,
			"byteLength":1344,
			"byteOffset":40768,
			"target":34963
		},
		{
			"buffer":0,
			"byteLength":3936,
			"byteOffset":42112,
			"target":34962
		},
		{
			"buffer":0,
			"byteLength":3936,
			"byteOffset":46048,
			"target":34962
		},
		{
			"buffer":0,
			"byteLength":2624,
			"byteOffset":49984,
			"target":34962
		},
		{
			"buffer":0,
			"byteLength":1080,
			"byteOffset":52608,
			"target":34963
		},
		{
			"buffer":0,
			"byteLength":1128,
			"byteOffset":53688,
			"target":34962
		},
		{
			"buffer":0,
			"byteLength":1128,
			"byteOffset":54816,
			"target":34962
		},
		{
			"buffer":0,
			"byteLength":752,
			"byteOffset":55944,
			"target":34962
		},
		{
			"buffer":0,
			"byteLength":564,
			"byteOffset":56696,
			"target":34963
		},
		{
			"buffer":0,
			"byteLength":288,
			"byteOffset":57260,
			"target":34962
		},
		{
			"buffer":0,
			"byteLength":288,
			"byteOffset":57548,
			"target":34962
		},
		{
			"buffer":0,
			"byteLength":192,
			"byteOffset":57836,
			"target":34962
		},
		{
			"buffer":0,
			"byteLength":72,
			"byteOffset":58028,
			"target":34963
		},
		{
			"buffer":0,
			"byteLength":27492,
			"byteOffset":58100,
			"target":34962
		},
		{
			"buffer":0,
			"byteLength":27492,
			"byteOffset":85592,
			"target":34962
		},
		{
			"buffer":0,
			"byteLength":18328,
			"byteOffset":113084,
			"target":34962
		},
		{
			"buffer":0,
			"byteLength":10200,
			"byteOffset":131412,
			"target":34963
		}
	],
	"buffers":[
		{
			"byteLength":141612,
			"uri":"progg.bin"
		}
	]
}
