{
	"asset":{
		"generator":"Khronos glTF Blender I/O v4.0.44",
		"version":"2.0"
	},
	"extensionsUsed":[
		"KHR_materials_emissive_strength"
	],
	"scene":0,
	"scenes":[
		{
			"name":"Scene",
			"nodes":[
				0,
				1,
				2,
				3,
				4,
				5,
				6,
				7,
				8,
				9,
				10,
				11,
				12,
				13,
				14
			]
		}
	],
	"nodes":[
		{
			"mesh":0,
			"name":"Cube.005",
			"scale":[
				1.289045810699463,
				0.2578091323375702,
				1.289045810699463
			],
			"translation":[
				0,
				0.2579820156097412,
				0
			]
		},
		{
			"mesh":1,
			"name":"Plane",
			"scale":[
				5.004845142364502,
				5.004845142364502,
				5.004845142364502
			],
			"translation":[
				0,
				0.39693015813827515,
				0
			]
		},
		{
			"mesh":2,
			"name":"Cube",
			"scale":[
				0.4908663034439087,
				0.4908663034439087,
				0.4908663034439087
			],
			"translation":[
				5.501831531524658,
				0.9802066087722778,
				0
			]
		},
		{
			"mesh":3,
			"name":"Text",
			"rotation":[
				0.5,
				0.4999999403953552,
				-0.4999999403953552,
				0.5000001192092896
			],
			"scale":[
				0.6642294526100159,
				0.6642294526100159,
				0.6642294526100159
			],
			"translation":[
				5.524267673492432,
				4.242856979370117,
				0.20862942934036255
			]
		},
		{
			"mesh":4,
			"name":"Cube.001",
			"scale":[
				0.013208077289164066,
				0.5889543890953064,
				0.013208077289164066
			],
			"translation":[
				5.07337760925293,
				2.1787452697753906,
				0.4293785095214844
			]
		},
		{
			"mesh":5,
			"name":"Cylinder",
			"rotation":[
				0.6532815098762512,
				-0.27059805393218994,
				0.27059805393218994,
				0.6532815098762512
			],
			"scale":[
				0.6394662857055664,
				0.12789325416088104,
				0.6394662857055664
			],
			"translation":[
				-5.294732093811035,
				1.315347671508789,
				5.258542060852051
			]
		},
		{
			"mesh":6,
			"name":"Cube.002",
			"scale":[
				0.0042623006738722324,
				0.012857466004788876,
				0.0042623006738722324
			],
			"translation":[
				4.680667877197266,
				2.221351146697998,
				0.3802448511123657
			]
		},
		{
			"mesh":7,
			"name":"Cube.003",
			"scale":[
				0.0063885352574288845,
				0.0063885352574288845,
				0.37847694754600525
			],
			"translation":[
				4.680667877197266,
				2.239473581314087,
				-0.004858749452978373
			]
		},
		{
			"mesh":8,
			"name":"Cube.004",
			"scale":[
				0.0042623006738722324,
				0.012857466004788876,
				0.0042623006738722324
			],
			"translation":[
				4.680667877197266,
				2.221351146697998,
				-0.3791622817516327
			]
		},
		{
			"mesh":9,
			"name":"Plane.003",
			"rotation":[
				-0.5000000596046448,
				-0.4999999403953552,
				0.4999999403953552,
				0.5000000596046448
			],
			"scale":[
				0.011318061500787735,
				0.013182733207941055,
				0.2212674617767334
			],
			"translation":[
				4.904167175292969,
				2.2224247455596924,
				0.37943702936172485
			]
		},
		{
			"mesh":10,
			"name":"Cube.006",
			"scale":[
				0.09427697956562042,
				0.04353662580251694,
				0.04353662580251694
			],
			"translation":[
				0,
				0.509516179561615,
				0
			]
		},
		{
			"mesh":11,
			"name":"Plane.004",
			"rotation":[
				0,
				0,
				0.7071068286895752,
				0.7071068286895752
			],
			"scale":[
				0.15652571618556976,
				0.15652571618556976,
				0.15652571618556976
			],
			"translation":[
				5.035419464111328,
				0.661176323890686,
				0
			]
		},
		{
			"mesh":12,
			"name":"Plane.005",
			"rotation":[
				0,
				0,
				0.7071068286895752,
				0.7071068286895752
			],
			"scale":[
				0.15949171781539917,
				0.15949171781539917,
				0.15949171781539917
			],
			"translation":[
				4.997978687286377,
				0.6622117161750793,
				0
			]
		},
		{
			"mesh":13,
			"name":"Plane.001",
			"rotation":[
				0,
				0,
				0.7071068286895752,
				0.7071068286895752
			],
			"scale":[
				0.12937873601913452,
				0.12937873601913452,
				0.12937873601913452
			],
			"translation":[
				5.128576755523682,
				2.3358936309814453,
				0
			]
		},
		{
			"mesh":14,
			"name":"Plane.002",
			"rotation":[
				0,
				0,
				0.7071068286895752,
				0.7071068286895752
			],
			"scale":[
				0.1318303346633911,
				0.1318303346633911,
				0.1318303346633911
			],
			"translation":[
				5.097629547119141,
				2.336749315261841,
				0
			]
		}
	],
	"materials":[
		{
			"doubleSided":true,
			"name":"Material.004",
			"pbrMetallicRoughness":{
				"metallicFactor":0,
				"roughnessFactor":0.6810344457626343
			}
		},
		{
			"doubleSided":true,
			"name":"Material.001",
			"pbrMetallicRoughness":{
				"baseColorFactor":[
					0.005387336481362581,
					0.005387336481362581,
					0.005387336481362581,
					1
				],
				"metallicFactor":0,
				"roughnessFactor":0.7155172228813171
			}
		},
		{
			"doubleSided":true,
			"name":"Material.006",
			"pbrMetallicRoughness":{
				"baseColorFactor":[
					0.2888853847980499,
					0.30233344435691833,
					0.34483131766319275,
					1
				],
				"metallicFactor":0.2586206793785095,
				"roughnessFactor":0.051724135875701904
			}
		},
		{
			"doubleSided":true,
			"emissiveFactor":[
				1,
				0.6009851098060608,
				0.049694664776325226
			],
			"extensions":{
				"KHR_materials_emissive_strength":{
					"emissiveStrength":6.799999713897705
				}
			},
			"name":"Material.007",
			"pbrMetallicRoughness":{
				"baseColorFactor":[
					0.8007433414459229,
					0.4514017701148987,
					0.045362308621406555,
					1
				],
				"metallicFactor":0,
				"roughnessFactor":0.5
			}
		},
		{
			"doubleSided":true,
			"name":"Material.005",
			"pbrMetallicRoughness":{
				"baseColorFactor":[
					0.026962587609887123,
					0.026962587609887123,
					0.026962587609887123,
					1
				],
				"metallicFactor":0.6551724076271057,
				"roughnessFactor":0.24137932062149048
			}
		},
		{
			"doubleSided":true,
			"emissiveFactor":[
				1,
				0.03908930718898773,
				0.008475170470774174
			],
			"extensions":{
				"KHR_materials_emissive_strength":{
					"emissiveStrength":2.5999999046325684
				}
			},
			"name":"Material.002",
			"pbrMetallicRoughness":{
				"baseColorFactor":[
					0.8004324436187744,
					0.052136968821287155,
					0.03491171449422836,
					1
				],
				"metallicFactor":0,
				"roughnessFactor":0.5
			}
		},
		{
			"doubleSided":true,
			"emissiveFactor":[
				0.5199999809265137,
				0.3513563670981341,
				0.09810138104140265
			],
			"name":"Material.003",
			"pbrMetallicRoughness":{
				"baseColorFactor":[
					0.8004492521286011,
					0.5725087523460388,
					0.09019257873296738,
					1
				],
				"metallicFactor":0.7155172824859619,
				"roughnessFactor":0.23275864124298096
			}
		},
		{
			"doubleSided":true,
			"name":"Material.010",
			"pbrMetallicRoughness":{
				"baseColorFactor":[
					0.5859324336051941,
					0.7405794858932495,
					0.8001892566680908,
					0.37931036949157715
				],
				"metallicFactor":0.27586206793785095,
				"roughnessFactor":0.1551724076271057
			}
		},
		{
			"doubleSided":true,
			"name":"Material.009",
			"pbrMetallicRoughness":{
				"baseColorFactor":[
					0.800000011920929,
					0.800000011920929,
					0.800000011920929,
					1
				],
				"metallicFactor":0,
				"roughnessFactor":0.5862069129943848
			}
		}
	],
	"meshes":[
		{
			"name":"Cube.005",
			"primitives":[
				{
					"attributes":{
						"POSITION":0,
						"NORMAL":1,
						"TEXCOORD_0":2
					},
					"indices":3,
					"material":0
				}
			]
		},
		{
			"name":"Plane",
			"primitives":[
				{
					"attributes":{
						"POSITION":4,
						"NORMAL":5,
						"TEXCOORD_0":6
					},
					"indices":7,
					"material":1
				}
			]
		},
		{
			"name":"Cube.014",
			"primitives":[
				{
					"attributes":{
						"POSITION":8,
						"NORMAL":9,
						"TEXCOORD_0":10
					},
					"indices":11,
					"material":2
				},
				{
					"attributes":{
						"POSITION":12,
						"NORMAL":13,
						"TEXCOORD_0":14
					},
					"indices":15,
					"material":3
				},
				{
					"attributes":{
						"POSITION":16,
						"NORMAL":17,
						"TEXCOORD_0":18
					},
					"indices":19,
					"material":4
				}
			]
		},
		{
			"name":"Text",
			"primitives":[
				{
					"attributes":{
						"POSITION":20,
						"NORMAL":21,
						"TEXCOORD_0":22
					},
					"indices":23,
					"material":5
				}
			]
		},
		{
			"name":"Cube.015",
			"primitives":[
				{
					"attributes":{
						"POSITION":24,
						"NORMAL":25,
						"TEXCOORD_0":26
					},
					"indices":27,
					"material":4
				}
			]
		},
		{
			"name":"Cylinder",
			"primitives":[
				{
					"attributes":{
						"POSITION":28,
						"NORMAL":29,
						"TEXCOORD_0":30
					},
					"indices":31,
					"material":6
				}
			]
		},
		{
			"name":"Cube",
			"primitives":[
				{
					"attributes":{
						"POSITION":32,
						"NORMAL":33,
						"TEXCOORD_0":34
					},
					"indices":35
				}
			]
		},
		{
			"name":"Cube.001",
			"primitives":[
				{
					"attributes":{
						"POSITION":36,
						"NORMAL":37,
						"TEXCOORD_0":38
					},
					"indices":39
				}
			]
		},
		{
			"name":"Cube.002",
			"primitives":[
				{
					"attributes":{
						"POSITION":40,
						"NORMAL":41,
						"TEXCOORD_0":42
					},
					"indices":35
				}
			]
		},
		{
			"name":"Plane.003",
			"primitives":[
				{
					"attributes":{
						"POSITION":43,
						"NORMAL":44,
						"TEXCOORD_0":45
					},
					"indices":46,
					"material":7
				}
			]
		},
		{
			"name":"Cube.007",
			"primitives":[
				{
					"attributes":{
						"POSITION":47,
						"NORMAL":48,
						"TEXCOORD_0":49
					},
					"indices":50,
					"material":8
				}
			]
		},
		{
			"name":"Plane.011",
			"primitives":[
				{
					"attributes":{
						"POSITION":51,
						"NORMAL":52,
						"TEXCOORD_0":53
					},
					"indices":54,
					"material":4
				}
			]
		},
		{
			"name":"Plane.013",
			"primitives":[
				{
					"attributes":{
						"POSITION":55,
						"NORMAL":56,
						"TEXCOORD_0":57
					},
					"indices":58,
					"material":3
				}
			]
		},
		{
			"name":"Plane.014",
			"primitives":[
				{
					"attributes":{
						"POSITION":59,
						"NORMAL":60,
						"TEXCOORD_0":61
					},
					"indices":54,
					"material":4
				}
			]
		},
		{
			"name":"Plane.015",
			"primitives":[
				{
					"attributes":{
						"POSITION":62,
						"NORMAL":63,
						"TEXCOORD_0":64
					},
					"indices":58,
					"material":3
				}
			]
		}
	],
	"accessors":[
		{
			"bufferView":0,
			"componentType":5126,
			"count":960,
			"max":[
				4.657714366912842,
				1.0000001192092896,
				4.663084983825684
			],
			"min":[
				-4.662675380706787,
				-1.0000001192092896,
				-4.657513618469238
			],
			"type":"VEC3"
		},
		{
			"bufferView":1,
			"componentType":5126,
			"count":960,
			"type":"VEC3"
		},
		{
			"bufferView":2,
			"componentType":5126,
			"count":960,
			"type":"VEC2"
		},
		{
			"bufferView":3,
			"componentType":5123,
			"count":1440,
			"type":"SCALAR"
		},
		{
			"bufferView":4,
			"componentType":5126,
			"count":224,
			"max":[
				1,
				0.03021302819252014,
				1
			],
			"min":[
				-1,
				0,
				-1
			],
			"type":"VEC3"
		},
		{
			"bufferView":5,
			"componentType":5126,
			"count":224,
			"type":"VEC3"
		},
		{
			"bufferView":6,
			"componentType":5126,
			"count":224,
			"type":"VEC2"
		},
		{
			"bufferView":7,
			"componentType":5123,
			"count":672,
			"type":"SCALAR"
		},
		{
			"bufferView":8,
			"componentType":5126,
			"count":11776,
			"max":[
				1.0215263366699219,
				6.8183465003967285,
				1.0211164951324463
			],
			"min":[
				-1.7260053157806396,
				-1,
				-1.0211164951324463
			],
			"type":"VEC3"
		},
		{
			"bufferView":9,
			"componentType":5126,
			"count":11776,
			"type":"VEC3"
		},
		{
			"bufferView":10,
			"componentType":5126,
			"count":11776,
			"type":"VEC2"
		},
		{
			"bufferView":11,
			"componentType":5123,
			"count":18912,
			"type":"SCALAR"
		},
		{
			"bufferView":12,
			"componentType":5126,
			"count":136,
			"max":[
				0.9388328194618225,
				5.7966532707214355,
				0.958657443523407
			],
			"min":[
				-0.9582474231719971,
				1.3601959943771362,
				-0.9388325810432434
			],
			"type":"VEC3"
		},
		{
			"bufferView":13,
			"componentType":5126,
			"count":136,
			"type":"VEC3"
		},
		{
			"bufferView":14,
			"componentType":5126,
			"count":136,
			"type":"VEC2"
		},
		{
			"bufferView":15,
			"componentType":5123,
			"count":204,
			"type":"SCALAR"
		},
		{
			"bufferView":16,
			"componentType":5126,
			"count":4780,
			"max":[
				1.0215263366699219,
				6.81834602355957,
				1.0211164951324463
			],
			"min":[
				-1.7260053157806396,
				-0.9999995231628418,
				-1.0211164951324463
			],
			"type":"VEC3"
		},
		{
			"bufferView":17,
			"componentType":5126,
			"count":4780,
			"type":"VEC3"
		},
		{
			"bufferView":18,
			"componentType":5126,
			"count":4780,
			"type":"VEC2"
		},
		{
			"bufferView":19,
			"componentType":5123,
			"count":8952,
			"type":"SCALAR"
		},
		{
			"bufferView":20,
			"componentType":5126,
			"count":94,
			"max":[
				0.6040000319480896,
				0,
				0
			],
			"min":[
				0.07700000703334808,
				0,
				-0.6820000410079956
			],
			"type":"VEC3"
		},
		{
			"bufferView":21,
			"componentType":5126,
			"count":94,
			"type":"VEC3"
		},
		{
			"bufferView":22,
			"componentType":5126,
			"count":94,
			"type":"VEC2"
		},
		{
			"bufferView":23,
			"componentType":5123,
			"count":282,
			"type":"SCALAR"
		},
		{
			"bufferView":24,
			"componentType":5126,
			"count":96,
			"max":[
				65.87761688232422,
				1,
				1
			],
			"min":[
				-1,
				-1,
				-66.01757049560547
			],
			"type":"VEC3"
		},
		{
			"bufferView":25,
			"componentType":5126,
			"count":96,
			"type":"VEC3"
		},
		{
			"bufferView":26,
			"componentType":5126,
			"count":96,
			"type":"VEC2"
		},
		{
			"bufferView":27,
			"componentType":5123,
			"count":144,
			"type":"SCALAR"
		},
		{
			"bufferView":28,
			"componentType":5126,
			"count":2291,
			"max":[
				1,
				1,
				1
			],
			"min":[
				-1,
				-1,
				-1
			],
			"type":"VEC3"
		},
		{
			"bufferView":29,
			"componentType":5126,
			"count":2291,
			"type":"VEC3"
		},
		{
			"bufferView":30,
			"componentType":5126,
			"count":2291,
			"type":"VEC2"
		},
		{
			"bufferView":31,
			"componentType":5123,
			"count":5100,
			"type":"SCALAR"
		},
		{
			"bufferView":32,
			"componentType":5126,
			"count":24,
			"max":[
				1,
				1,
				1
			],
			"min":[
				-1,
				-1,
				-1
			],
			"type":"VEC3"
		},
		{
			"bufferView":33,
			"componentType":5126,
			"count":24,
			"type":"VEC3"
		},
		{
			"bufferView":34,
			"componentType":5126,
			"count":24,
			"type":"VEC2"
		},
		{
			"bufferView":35,
			"componentType":5123,
			"count":36,
			"type":"SCALAR"
		},
		{
			"bufferView":36,
			"componentType":5126,
			"count":64,
			"max":[
				70.46324920654297,
				1,
				1.0324040651321411
			],
			"min":[
				-1,
				-1,
				-1.0060757398605347
			],
			"type":"VEC3"
		},
		{
			"bufferView":37,
			"componentType":5126,
			"count":64,
			"type":"VEC3"
		},
		{
			"bufferView":38,
			"componentType":5126,
			"count":64,
			"type":"VEC2"
		},
		{
			"bufferView":39,
			"componentType":5123,
			"count":132,
			"type":"SCALAR"
		},
		{
			"bufferView":40,
			"componentType":5126,
			"count":24,
			"max":[
				1,
				1,
				1
			],
			"min":[
				-1,
				-1,
				-1
			],
			"type":"VEC3"
		},
		{
			"bufferView":41,
			"componentType":5126,
			"count":24,
			"type":"VEC3"
		},
		{
			"bufferView":42,
			"componentType":5126,
			"count":24,
			"type":"VEC2"
		},
		{
			"bufferView":43,
			"componentType":5126,
			"count":12,
			"max":[
				1.705278992652893,
				57.525794982910156,
				1.0058804750442505
			],
			"min":[
				-1.7052704095840454,
				0,
				-1
			],
			"type":"VEC3"
		},
		{
			"bufferView":44,
			"componentType":5126,
			"count":12,
			"type":"VEC3"
		},
		{
			"bufferView":45,
			"componentType":5126,
			"count":12,
			"type":"VEC2"
		},
		{
			"bufferView":46,
			"componentType":5123,
			"count":18,
			"type":"SCALAR"
		},
		{
			"bufferView":47,
			"componentType":5126,
			"count":1344,
			"max":[
				50.84647750854492,
				1.000000238418579,
				107.9555892944336
			],
			"min":[
				-50.207916259765625,
				-1.0000004768371582,
				-108.54505157470703
			],
			"type":"VEC3"
		},
		{
			"bufferView":48,
			"componentType":5126,
			"count":1344,
			"type":"VEC3"
		},
		{
			"bufferView":49,
			"componentType":5126,
			"count":1344,
			"type":"VEC2"
		},
		{
			"bufferView":50,
			"componentType":5123,
			"count":2016,
			"type":"SCALAR"
		},
		{
			"bufferView":51,
			"componentType":5126,
			"count":18,
			"max":[
				1,
				0.27128708362579346,
				1
			],
			"min":[
				-1.0000004768371582,
				-7.105427357601002e-15,
				-1
			],
			"type":"VEC3"
		},
		{
			"bufferView":52,
			"componentType":5126,
			"count":18,
			"type":"VEC3"
		},
		{
			"bufferView":53,
			"componentType":5126,
			"count":18,
			"type":"VEC2"
		},
		{
			"bufferView":54,
			"componentType":5123,
			"count":30,
			"type":"SCALAR"
		},
		{
			"bufferView":55,
			"componentType":5126,
			"count":4,
			"max":[
				1,
				0,
				1
			],
			"min":[
				-1,
				0,
				-1
			],
			"type":"VEC3"
		},
		{
			"bufferView":56,
			"componentType":5126,
			"count":4,
			"type":"VEC3"
		},
		{
			"bufferView":57,
			"componentType":5126,
			"count":4,
			"type":"VEC2"
		},
		{
			"bufferView":58,
			"componentType":5123,
			"count":6,
			"type":"SCALAR"
		},
		{
			"bufferView":59,
			"componentType":5126,
			"count":18,
			"max":[
				1,
				0.27128708362579346,
				1
			],
			"min":[
				-1.0000004768371582,
				-7.105427357601002e-15,
				-1
			],
			"type":"VEC3"
		},
		{
			"bufferView":60,
			"componentType":5126,
			"count":18,
			"type":"VEC3"
		},
		{
			"bufferView":61,
			"componentType":5126,
			"count":18,
			"type":"VEC2"
		},
		{
			"bufferView":62,
			"componentType":5126,
			"count":4,
			"max":[
				1,
				0,
				1
			],
			"min":[
				-1,
				0,
				-1
			],
			"type":"VEC3"
		},
		{
			"bufferView":63,
			"componentType":5126,
			"count":4,
			"type":"VEC3"
		},
		{
			"bufferView":64,
			"componentType":5126,
			"count":4,
			"type":"VEC2"
		}
	],
	"bufferViews":[
		{
			"buffer":0,
			"byteLength":11520,
			"byteOffset":0,
			"target":34962
		},
		{
			"buffer":0,
			"byteLength":11520,
			"byteOffset":11520,
			"target":34962
		},
		{
			"buffer":0,
			"byteLength":7680,
			"byteOffset":23040,
			"target":34962
		},
		{
			"buffer":0,
			"byteLength":2880,
			"byteOffset":30720,
			"target":34963
		},
		{
			"buffer":0,
			"byteLength":2688,
			"byteOffset":33600,
			"target":34962
		},
		{
			"buffer":0,
			"byteLength":2688,
			"byteOffset":36288,
			"target":34962
		},
		{
			"buffer":0,
			"byteLength":1792,
			"byteOffset":38976,
			"target":34962
		},
		{
			"buffer":0,
			"byteLength":1344,
			"byteOffset":40768,
			"target":34963
		},
		{
			"buffer":0,
			"byteLength":141312,
			"byteOffset":42112,
			"target":34962
		},
		{
			"buffer":0,
			"byteLength":141312,
			"byteOffset":183424,
			"target":34962
		},
		{
			"buffer":0,
			"byteLength":94208,
			"byteOffset":324736,
			"target":34962
		},
		{
			"buffer":0,
			"byteLength":37824,
			"byteOffset":418944,
			"target":34963
		},
		{
			"buffer":0,
			"byteLength":1632,
			"byteOffset":456768,
			"target":34962
		},
		{
			"buffer":0,
			"byteLength":1632,
			"byteOffset":458400,
			"target":34962
		},
		{
			"buffer":0,
			"byteLength":1088,
			"byteOffset":460032,
			"target":34962
		},
		{
			"buffer":0,
			"byteLength":408,
			"byteOffset":461120,
			"target":34963
		},
		{
			"buffer":0,
			"byteLength":57360,
			"byteOffset":461528,
			"target":34962
		},
		{
			"buffer":0,
			"byteLength":57360,
			"byteOffset":518888,
			"target":34962
		},
		{
			"buffer":0,
			"byteLength":38240,
			"byteOffset":576248,
			"target":34962
		},
		{
			"buffer":0,
			"byteLength":17904,
			"byteOffset":614488,
			"target":34963
		},
		{
			"buffer":0,
			"byteLength":1128,
			"byteOffset":632392,
			"target":34962
		},
		{
			"buffer":0,
			"byteLength":1128,
			"byteOffset":633520,
			"target":34962
		},
		{
			"buffer":0,
			"byteLength":752,
			"byteOffset":634648,
			"target":34962
		},
		{
			"buffer":0,
			"byteLength":564,
			"byteOffset":635400,
			"target":34963
		},
		{
			"buffer":0,
			"byteLength":1152,
			"byteOffset":635964,
			"target":34962
		},
		{
			"buffer":0,
			"byteLength":1152,
			"byteOffset":637116,
			"target":34962
		},
		{
			"buffer":0,
			"byteLength":768,
			"byteOffset":638268,
			"target":34962
		},
		{
			"buffer":0,
			"byteLength":288,
			"byteOffset":639036,
			"target":34963
		},
		{
			"buffer":0,
			"byteLength":27492,
			"byteOffset":639324,
			"target":34962
		},
		{
			"buffer":0,
			"byteLength":27492,
			"byteOffset":666816,
			"target":34962
		},
		{
			"buffer":0,
			"byteLength":18328,
			"byteOffset":694308,
			"target":34962
		},
		{
			"buffer":0,
			"byteLength":10200,
			"byteOffset":712636,
			"target":34963
		},
		{
			"buffer":0,
			"byteLength":288,
			"byteOffset":722836,
			"target":34962
		},
		{
			"buffer":0,
			"byteLength":288,
			"byteOffset":723124,
			"target":34962
		},
		{
			"buffer":0,
			"byteLength":192,
			"byteOffset":723412,
			"target":34962
		},
		{
			"buffer":0,
			"byteLength":72,
			"byteOffset":723604,
			"target":34963
		},
		{
			"buffer":0,
			"byteLength":768,
			"byteOffset":723676,
			"target":34962
		},
		{
			"buffer":0,
			"byteLength":768,
			"byteOffset":724444,
			"target":34962
		},
		{
			"buffer":0,
			"byteLength":512,
			"byteOffset":725212,
			"target":34962
		},
		{
			"buffer":0,
			"byteLength":264,
			"byteOffset":725724,
			"target":34963
		},
		{
			"buffer":0,
			"byteLength":288,
			"byteOffset":725988,
			"target":34962
		},
		{
			"buffer":0,
			"byteLength":288,
			"byteOffset":726276,
			"target":34962
		},
		{
			"buffer":0,
			"byteLength":192,
			"byteOffset":726564,
			"target":34962
		},
		{
			"buffer":0,
			"byteLength":144,
			"byteOffset":726756,
			"target":34962
		},
		{
			"buffer":0,
			"byteLength":144,
			"byteOffset":726900,
			"target":34962
		},
		{
			"buffer":0,
			"byteLength":96,
			"byteOffset":727044,
			"target":34962
		},
		{
			"buffer":0,
			"byteLength":36,
			"byteOffset":727140,
			"target":34963
		},
		{
			"buffer":0,
			"byteLength":16128,
			"byteOffset":727176,
			"target":34962
		},
		{
			"buffer":0,
			"byteLength":16128,
			"byteOffset":743304,
			"target":34962
		},
		{
			"buffer":0,
			"byteLength":10752,
			"byteOffset":759432,
			"target":34962
		},
		{
			"buffer":0,
			"byteLength":4032,
			"byteOffset":770184,
			"target":34963
		},
		{
			"buffer":0,
			"byteLength":216,
			"byteOffset":774216,
			"target":34962
		},
		{
			"buffer":0,
			"byteLength":216,
			"byteOffset":774432,
			"target":34962
		},
		{
			"buffer":0,
			"byteLength":144,
			"byteOffset":774648,
			"target":34962
		},
		{
			"buffer":0,
			"byteLength":60,
			"byteOffset":774792,
			"target":34963
		},
		{
			"buffer":0,
			"byteLength":48,
			"byteOffset":774852,
			"target":34962
		},
		{
			"buffer":0,
			"byteLength":48,
			"byteOffset":774900,
			"target":34962
		},
		{
			"buffer":0,
			"byteLength":32,
			"byteOffset":774948,
			"target":34962
		},
		{
			"buffer":0,
			"byteLength":12,
			"byteOffset":774980,
			"target":34963
		},
		{
			"buffer":0,
			"byteLength":216,
			"byteOffset":774992,
			"target":34962
		},
		{
			"buffer":0,
			"byteLength":216,
			"byteOffset":775208,
			"target":34962
		},
		{
			"buffer":0,
			"byteLength":144,
			"byteOffset":775424,
			"target":34962
		},
		{
			"buffer":0,
			"byteLength":48,
			"byteOffset":775568,
			"target":34962
		},
		{
			"buffer":0,
			"byteLength":48,
			"byteOffset":775616,
			"target":34962
		},
		{
			"buffer":0,
			"byteLength":32,
			"byteOffset":775664,
			"target":34962
		}
	],
	"buffers":[
		{
			"byteLength":775696,
			"uri":"progg.bin"
		}
	]
}
